<svg width="1024" height="1024" viewBox="0 0 1024 1024" fill="none" xmlns="http://www.w3.org/2000/svg">
  <defs>
    <linearGradient id="bg" x1="140" y1="120" x2="884" y2="904" gradientUnits="userSpaceOnUse">
      <stop stop-color="#FFF8E7"/>
      <stop offset="1" stop-color="#F0E0C8"/>
    </linearGradient>
    <linearGradient id="ink" x1="370" y1="220" x2="670" y2="820" gradientUnits="userSpaceOnUse">
      <stop stop-color="#342217"/>
      <stop offset="1" stop-color="#5C4334"/>
    </linearGradient>
    <filter id="shadow" x="118" y="118" width="788" height="788" filterUnits="userSpaceOnUse" color-interpolation-filters="sRGB">
      <feFlood flood-opacity="0" result="BackgroundImageFix"/>
      <feColorMatrix in="SourceAlpha" type="matrix" values="0 0 0 0 0 0 0 0 0 0 0 0 0 0 0 0 0 0 127 0" result="hardAlpha"/>
      <feOffset dy="18"/>
      <feGaussianBlur stdDeviation="18"/>
      <feComposite in2="hardAlpha" operator="out"/>
      <feColorMatrix type="matrix" values="0 0 0 0 0.36 0 0 0 0 0.24 0 0 0 0 0.16 0 0 0 0.18 0"/>
      <feBlend mode="normal" in2="BackgroundImageFix" result="effect1_dropShadow_1_1"/>
      <feBlend mode="normal" in="SourceGraphic" in2="effect1_dropShadow_1_1" result="shape"/>
    </filter>
  </defs>

  <rect width="1024" height="1024" rx="240" fill="#F7EEDC"/>
  <g filter="url(#shadow)">
    <rect x="154" y="136" width="716" height="716" rx="180" fill="url(#bg)"/>
    <rect x="154" y="136" width="716" height="716" rx="180" stroke="#D9BE97" stroke-width="12"/>
  </g>

  <path d="M267 334C267 317 280 304 297 304H727C744 304 757 317 757 334V664C757 681 744 694 727 694H297C280 694 267 681 267 664V334Z" stroke="#DFC4A2" stroke-width="10" stroke-dasharray="14 18"/>
  <path d="M512 304V694" stroke="#D26B41" stroke-opacity="0.38" stroke-width="10"/>
  <path d="M267 499H757" stroke="#D26B41" stroke-opacity="0.38" stroke-width="10"/>
  <path d="M470 499H554" stroke="#D26B41" stroke-width="18" stroke-linecap="round"/>
  <path d="M512 457V541" stroke="#D26B41" stroke-width="18" stroke-linecap="round"/>

  <text x="512" y="618" text-anchor="middle" fill="url(#ink)"
        font-size="430"
        font-weight="500"
        font-family="YuKyokasho, STKaiti, Kaiti SC, Hiragino Mincho ProN, Yu Mincho, serif">
    練
  </text>

  <circle cx="836" cy="836" r="16" fill="#D26B41" fill-opacity="0.55"/>
  <circle cx="190" cy="190" r="12" fill="#D26B41" fill-opacity="0.28"/>
</svg>
